<?xml version="1.0" encoding="UTF-8"?>
<svg version="1.1" xmlns="http://www.w3.org/2000/svg" width="600" height="600">
<path d="M0 0 C1.55809891 -0.00855011 1.55809891 -0.00855011 3.14767456 -0.01727295 C5.34111533 -0.02667004 7.53456987 -0.03323572 9.72802734 -0.03710938 C12.99734013 -0.04670665 16.26599336 -0.07773635 19.53515625 -0.109375 C34.21390454 -0.18329596 48.42590045 0.96132101 62.9296875 3.203125 C64.18507324 3.39664551 65.44045898 3.59016602 66.73388672 3.78955078 C69.60471137 4.27111723 72.45334669 4.80545023 75.3046875 5.390625 C76.32175781 5.59856689 77.33882813 5.80650879 78.38671875 6.02075195 C119.63512656 14.84031283 159.25357252 32.82472711 192.9296875 58.203125 C193.51202148 58.64124512 194.09435547 59.07936523 194.69433594 59.53076172 C202.14304867 65.17317178 209.20528649 71.10181454 216.015625 77.5 C218.25139216 79.57392878 220.512363 81.57281547 222.82421875 83.55859375 C226.86932884 87.08468333 230.58683017 90.84034706 234.2421875 94.765625 C234.89026367 95.46034912 235.53833984 96.15507324 236.20605469 96.87084961 C241.68719712 102.81552075 246.7711737 108.9873579 251.61914062 115.45556641 C252.95611514 117.23836513 254.30978893 119.00766357 255.6640625 120.77734375 C290.86733885 167.25263578 313.69865873 227.46418874 314.16796875 286.0625 C314.17780792 287.07703247 314.18764709 288.09156494 314.19778442 289.13684082 C314.36966082 311.47012322 314.29733757 333.22157087 309.9296875 355.203125 C309.68831055 356.43289063 309.44693359 357.66265625 309.19824219 358.9296875 C296.10298227 423.6318019 261.68460316 485.36629291 210.9296875 528.203125 C210.42421387 528.63834473 209.91874023 529.07356445 209.39794922 529.52197266 C185.13924384 550.33416257 157.3253792 566.79703126 127.9296875 579.203125 C127.15657227 579.53103027 126.38345703 579.85893555 125.58691406 580.19677734 C105.93162131 588.4103467 105.93162131 588.4103467 96.9921875 585.015625 C92.88726205 582.58617933 90.45438015 580.77720295 88.9296875 576.203125 C88.82433036 573.20941453 88.77556831 570.23803209 88.77197266 567.24389648 C88.76689194 566.32627533 88.76181122 565.40865417 88.75657654 564.46322632 C88.74586561 562.46619563 88.73724827 560.46915289 88.73045731 558.47210503 C88.71864279 555.29539187 88.69917626 552.1188131 88.67733765 548.94215393 C88.61585764 539.90785314 88.56198483 530.87356185 88.52832031 521.83911133 C88.50716964 516.31120026 88.47169262 510.78352768 88.42756271 505.25575447 C88.41354622 503.16339015 88.40471332 501.07098356 88.40150833 498.97857475 C88.36497513 477.38307978 87.27233267 455.6260698 72.9296875 438.203125 C71.83333984 437.13771484 71.83333984 437.13771484 70.71484375 436.05078125 C68.9296875 434.203125 68.9296875 434.203125 68.9296875 432.203125 C69.89003906 432.04457031 70.85039062 431.88601563 71.83984375 431.72265625 C112.80484379 424.81706947 152.06209524 414.26559683 178.9296875 380.203125 C195.6502192 356.2495543 203.86367185 326.77087578 204.16796875 297.6796875 C204.1777626 296.89992554 204.18755646 296.12016357 204.19764709 295.31677246 C204.61747906 271.95333651 204.61747906 271.95333651 199.9296875 249.203125 C199.60822754 248.17469482 199.60822754 248.17469482 199.28027344 247.12548828 C194.95104652 233.53600087 188.3042847 221.50564277 179.16699219 210.55200195 C176.64581516 207.46740274 175.08186082 205.22658752 174.9296875 201.203125 C175.671875 197.75 175.671875 197.75 176.8046875 193.953125 C178.39487915 188.34290725 179.70149977 183.04092771 179.9296875 177.203125 C179.98125 176.14351562 180.0328125 175.08390625 180.0859375 173.9921875 C180.49745353 157.90876922 178.21426792 139.77228585 170.9296875 125.203125 C144.72026186 123.56218705 114.02004979 136.92925497 94.4609375 154.12109375 C87.29164028 157.18574704 77.11269462 153.31707066 69.8046875 151.765625 C60.19159993 149.78915502 50.70392102 148.11779756 40.9296875 147.203125 C39.77597656 147.09226563 38.62226563 146.98140625 37.43359375 146.8671875 C7.44449007 144.4365263 -24.42640932 146.12280288 -53.4453125 154.421875 C-58.78644732 155.57298164 -62.36817615 155.15139639 -67.1484375 152.48828125 C-68.19515625 151.75480469 -69.241875 151.02132812 -70.3203125 150.265625 C-91.25341334 136.13714458 -116.22632582 123.5850667 -142.0703125 125.203125 C-143.04164353 128.28250936 -143.99479495 131.36725873 -144.9453125 134.453125 C-145.34943359 135.73316406 -145.34943359 135.73316406 -145.76171875 137.0390625 C-149.03020758 147.72144062 -150.46029272 158.16609817 -150.4453125 169.328125 C-150.44587646 170.40473389 -150.44644043 171.48134277 -150.44702148 172.59057617 C-150.30888707 182.75742002 -148.7509445 192.58551508 -145.36694336 202.2019043 C-145.0703125 204.203125 -145.0703125 204.203125 -145.94726562 205.93554688 C-146.41068359 206.50853516 -146.87410156 207.08152344 -147.3515625 207.671875 C-147.86050049 208.31874268 -148.36943848 208.96561035 -148.89379883 209.63208008 C-149.44704834 210.3155249 -150.00029785 210.99896973 -150.5703125 211.703125 C-151.69302419 213.15168539 -152.8115147 214.60352716 -153.92578125 216.05859375 C-154.74248291 217.124729 -154.74248291 217.124729 -155.57568359 218.21240234 C-176.44555436 246.00935206 -177.73758778 283.13734965 -173.48266602 316.25512695 C-169.93907691 341.14759965 -161.92474077 366.06498603 -145.0703125 385.203125 C-144.05710938 386.43095703 -144.05710938 386.43095703 -143.0234375 387.68359375 C-119.28018892 415.62957064 -81.52984482 425.7665119 -46.640625 430.66015625 C-43.0703125 431.203125 -43.0703125 431.203125 -40.0703125 432.203125 C-41.47837366 435.30363406 -43.19301715 437.6679742 -45.3828125 440.265625 C-51.6716525 448.30281472 -54.58489252 456.91839624 -56.55151367 466.80883789 C-57.16748911 469.66364038 -57.71150193 471.79880675 -59.671875 474.0078125 C-63.12846518 475.73047796 -66.67102971 476.7886975 -70.3828125 477.828125 C-71.11693359 478.0446875 -71.85105469 478.26125 -72.60742188 478.484375 C-89.42477758 483.31917824 -107.55311949 482.51305297 -123.125 474.125 C-133.80227445 467.15786601 -142.15227947 457.35068311 -149.0078125 446.703125 C-157.06260228 434.38147361 -168.63811487 423.22675409 -183.171875 419.3828125 C-190.85933199 417.93338744 -197.48166846 418.42560477 -205.0703125 420.203125 C-204.63049846 424.97341573 -203.81856778 427.07671947 -200.1328125 430.140625 C-199.32070312 430.82125 -198.50859375 431.501875 -197.671875 432.203125 C-195.17518951 434.12249883 -192.62495628 435.89046074 -190.0078125 437.640625 C-174.74524002 448.17626826 -166.08273741 466.94329061 -158.625 483.390625 C-151.92769 497.73677539 -141.83111998 506.46620667 -127.0703125 512.015625 C-116.11764383 515.87275471 -105.54506986 516.52149393 -94.0078125 516.453125 C-92.72970703 516.46085938 -91.45160156 516.46859375 -90.13476562 516.4765625 C-79.99875261 516.45632084 -70.11555632 515.47829656 -60.0703125 514.203125 C-59.97746297 522.1832368 -59.9064725 530.16312136 -59.86306381 538.14364052 C-59.84222535 541.8496985 -59.81397747 545.5553858 -59.76855469 549.26123047 C-59.72496138 552.84038286 -59.70114727 556.41917964 -59.69080353 559.99857712 C-59.68343615 561.36130747 -59.66904912 562.72401927 -59.64739227 564.08659744 C-59.44532657 577.33162967 -59.44532657 577.33162967 -64.0703125 582.203125 C-67.97032369 585.34480068 -72.11960877 586.34746039 -77.0703125 586.203125 C-85.14748551 584.71732769 -92.71978792 582.02545299 -100.2578125 578.828125 C-101.28028076 578.39677246 -102.30274902 577.96541992 -103.35620117 577.52099609 C-128.87528927 566.53455552 -152.45107231 552.62800018 -174.0703125 535.203125 C-174.93148682 534.50968994 -174.93148682 534.50968994 -175.81005859 533.80224609 C-194.28291234 518.80160975 -210.68330251 502.1458501 -225.0703125 483.203125 C-225.73498535 482.33977539 -225.73498535 482.33977539 -226.41308594 481.45898438 C-262.3643938 434.66188385 -286.01211301 373.5804182 -286.2734375 314.1328125 C-286.27913757 313.0940799 -286.28483765 312.05534729 -286.29071045 310.98513794 C-286.30010754 308.79169717 -286.30667322 306.59824263 -286.31054688 304.40478516 C-286.32014415 301.13547237 -286.35117385 297.86681914 -286.3828125 294.59765625 C-286.45673346 279.91890796 -285.31211649 265.70691205 -283.0703125 251.203125 C-282.87679199 249.94773926 -282.68327148 248.69235352 -282.48388672 247.39892578 C-282.00232027 244.52810113 -281.46798727 241.67946581 -280.8828125 238.828125 C-280.67487061 237.81105469 -280.46692871 236.79398438 -280.25268555 235.74609375 C-270.0015594 187.80236532 -247.48838977 142.00202353 -215.0703125 105.203125 C-214.43480469 104.46835938 -213.79929687 103.73359375 -213.14453125 102.9765625 C-212.02905819 101.68928094 -210.90684658 100.40780165 -209.77734375 99.1328125 C-208.57505471 97.77370316 -207.38610693 96.40273358 -206.20703125 95.0234375 C-195.6637538 82.91157452 -183.65565438 72.13567907 -170.81787109 62.51367188 C-169.03507237 61.17669736 -167.26577393 59.82302357 -165.49609375 58.46875 C-119.08144217 23.3114065 -58.57092803 0.25747072 0 0 Z " fill="#1A1E22" transform="translate(286.0703125,-0.203125)"/>
</svg>
