<?xml version="1.0" encoding="UTF-8"?>
<svg version="1.1" xmlns="http://www.w3.org/2000/svg" width="72" height="72">
<path d="M0 0 C23.76 0 47.52 0 72 0 C72 23.76 72 47.52 72 72 C48.24 72 24.48 72 0 72 C0 48.24 0 24.48 0 0 Z " fill="#017DB9" transform="translate(0,0)"/>
<path d="M0 0 C4.45127698 2.31123997 6.81074332 4.5202608 9 9 C9.34057617 12.04614258 9.34057617 12.04614258 9.29296875 15.39453125 C9.2784668 17.19760742 9.2784668 17.19760742 9.26367188 19.03710938 C9.23853516 20.28298828 9.21339844 21.52886719 9.1875 22.8125 C9.16719727 24.71032227 9.16719727 24.71032227 9.14648438 26.64648438 C9.11118318 29.76475643 9.06186819 32.88216042 9 36 C5.37 36 1.74 36 -2 36 C-2.04898438 34.36289062 -2.09796875 32.72578125 -2.1484375 31.0390625 C-2.22345639 28.901024 -2.2990046 26.76300402 -2.375 24.625 C-2.4059375 23.54476562 -2.436875 22.46453125 -2.46875 21.3515625 C-2.50742187 20.3203125 -2.54609375 19.2890625 -2.5859375 18.2265625 C-2.63306885 16.79691162 -2.63306885 16.79691162 -2.68115234 15.33837891 C-2.78555796 12.81104824 -2.78555796 12.81104824 -5 11 C-8.56592619 11.16417032 -8.56592619 11.16417032 -12 12 C-13.23060421 14.46120841 -13.2057723 16.25776866 -13.31640625 19.0078125 C-13.35830078 19.99394531 -13.40019531 20.98007812 -13.44335938 21.99609375 C-13.48267578 23.02863281 -13.52199219 24.06117187 -13.5625 25.125 C-13.60568359 26.16527344 -13.64886719 27.20554687 -13.69335938 28.27734375 C-13.79962768 30.8513983 -13.90033527 33.42568131 -14 36 C-17.3 36 -20.6 36 -24 36 C-24 24.78 -24 13.56 -24 2 C-20.7 2 -17.4 2 -14 2 C-13.67 2.66 -13.34 3.32 -13 4 C-12.154375 3.34 -11.30875 2.68 -10.4375 2 C-6.44287215 -0.32414711 -4.54547679 -0.64935383 0 0 Z " fill="#FAFCFD" transform="translate(53,26)"/>
<path d="M0 0 C3.63 0 7.26 0 11 0 C11 11.55 11 23.1 11 35 C7.37 35 3.74 35 0 35 C0 23.45 0 11.9 0 0 Z " fill="#F6FAFC" transform="translate(11,27)"/>
<path d="M0 0 C2.375 1.625 2.375 1.625 4 4 C3.9343548 7.21661485 3.53834164 9.19248753 1.75 11.875 C-0.71846913 13.46187301 -2.11780274 13.49208246 -5 13 C-7.375 11.4375 -7.375 11.4375 -9 9 C-8.9375 5.375 -8.9375 5.375 -8 2 C-4.75173326 -0.16551116 -3.76905843 -0.55156953 0 0 Z " fill="#F1F8FB" transform="translate(19,10)"/>
</svg>
