<?xml version="1.0" encoding="UTF-8"?>
<svg version="1.1" xmlns="http://www.w3.org/2000/svg" width="582" height="190">
<path d="M0 0 C192.06 0 384.12 0 582 0 C582 62.7 582 125.4 582 190 C389.94 190 197.88 190 0 190 C0 127.3 0 64.6 0 0 Z " fill="#2F9BF1" transform="translate(0,0)"/>
<path d="M0 0 C0.73623093 0.12606125 1.47246185 0.2521225 2.23100281 0.38200378 C3.77188319 0.64836706 5.31215217 0.9182901 6.85180664 1.19165039 C9.20829327 1.60706847 11.56763184 2.00219575 13.92773438 2.39648438 C15.4312038 2.65893203 16.93446741 2.92256206 18.4375 3.1875 C19.1406282 3.30325882 19.84375641 3.41901764 20.56819153 3.5382843 C23.2983558 4.03830308 25.51457034 4.54161559 27.83178711 6.10668945 C29.21842188 8.32318711 29.24478732 9.77020216 29.21484375 12.37890625 C29.20831787 13.76021729 29.20831787 13.76021729 29.20166016 15.16943359 C29.18022949 16.1589502 29.15879883 17.1484668 29.13671875 18.16796875 C29.11810791 19.69671631 29.11810791 19.69671631 29.09912109 21.25634766 C29.05050332 24.43614621 28.97404197 27.61401105 28.88671875 30.79296875 C28.86061523 31.78039062 28.83451172 32.7678125 28.80761719 33.78515625 C28.72523965 36.5803112 28.62419184 39.37387364 28.51171875 42.16796875 C28.48110352 43.00376465 28.45048828 43.83956055 28.41894531 44.70068359 C28.30341941 47.07469325 28.11424984 49.42724161 27.88671875 51.79296875 C27.8309668 52.60411133 27.77521484 53.41525391 27.71777344 54.25097656 C27.40107253 56.71521122 27.00955472 58.57426077 25.88671875 60.79296875 C23.16533532 62.86402754 20.10601791 63.71893913 16.88671875 64.79296875 C14.6295615 65.72604022 12.37726878 66.67093128 10.12890625 67.625 C8.29651034 68.36836747 6.46408318 69.11167455 4.62939453 69.84936523 C3.37807052 70.35594699 2.12936595 70.86904497 0.88330078 71.38842773 C-0.94504421 72.14964065 -2.78301652 72.88759738 -4.62109375 73.625 C-5.7002002 74.06561768 -6.77930664 74.50623535 -7.89111328 74.96020508 C-14.27795402 76.61087289 -19.49267446 74.49543377 -25.25390625 71.7734375 C-25.90276794 71.47359451 -26.55162964 71.17375153 -27.22015381 70.86482239 C-28.58023749 70.23310033 -29.93815357 69.59669207 -31.29394531 68.95581055 C-33.36511041 67.97960661 -35.44539848 67.02522385 -37.52734375 66.07226562 C-38.85346584 65.45310908 -40.1790081 64.83270879 -41.50390625 64.2109375 C-42.12267639 63.92848679 -42.74144653 63.64603607 -43.37896729 63.35502625 C-46.87593258 61.68001924 -49.29803924 60.27333784 -51.11328125 56.79296875 C-51.5456543 54.11767578 -51.5456543 54.11767578 -51.625 51.05078125 C-51.66077148 49.91181396 -51.69654297 48.77284668 -51.73339844 47.59936523 C-51.75563477 46.38450439 -51.77787109 45.16964355 -51.80078125 43.91796875 C-51.83204102 42.67539307 -51.86330078 41.43281738 -51.89550781 40.15258789 C-51.98367055 36.36619203 -52.04902953 32.57983541 -52.11328125 28.79296875 C-52.1405127 27.66455566 -52.16774414 26.53614258 -52.19580078 25.37353516 C-52.26934519 22.32583622 -52.32116656 19.27874543 -52.36328125 16.23046875 C-52.38479248 15.31604004 -52.40630371 14.40161133 -52.4284668 13.45947266 C-52.43273682 12.6194873 -52.43700684 11.77950195 -52.44140625 10.9140625 C-52.45075195 10.18630615 -52.46009766 9.4585498 -52.46972656 8.70874023 C-51.98727394 6.11572262 -51.25540631 5.32358654 -49.11328125 3.79296875 C-46.49707031 3.10107422 -46.49707031 3.10107422 -43.37890625 2.66015625 C-42.24710938 2.49386719 -41.1153125 2.32757813 -39.94921875 2.15625 C-38.76585937 1.99511719 -37.5825 1.83398438 -36.36328125 1.66796875 C-34.61144531 1.41466797 -34.61144531 1.41466797 -32.82421875 1.15625 C-30.56675495 0.83119569 -28.30830392 0.51290918 -26.04882812 0.20214844 C-23.79029549 -0.11266366 -21.53645219 -0.46125471 -19.28515625 -0.82421875 C-12.66728324 -1.62292756 -6.51944246 -1.1461262 0 0 Z " fill="#0F345F" transform="translate(80.11328125,57.20703125)"/>
<path d="M0 0 C-0.49543303 15.01114286 -0.99374151 30.01317139 -2 45 C-9.51245458 48.17599706 -17.06125926 51.26098725 -24.625 54.3125 C-25.51413086 54.67408203 -26.40326172 55.03566406 -27.31933594 55.40820312 C-28.1549707 55.74400391 -28.99060547 56.07980469 -29.8515625 56.42578125 C-30.60260254 56.72911377 -31.35364258 57.03244629 -32.12744141 57.3449707 C-34 58 -34 58 -36 58 C-36 40.84 -36 23.68 -36 6 C-28.20375 4.515 -28.20375 4.515 -20.25 3 C-18.61579102 2.68675781 -16.98158203 2.37351562 -15.29785156 2.05078125 C-14.0084668 1.80714844 -12.71908203 1.56351562 -11.390625 1.3125 C-10.72015137 1.18294922 -10.04967773 1.05339844 -9.35888672 0.91992188 C-6.14522337 0.31691133 -3.28977997 0 0 0 Z " fill="#2395EF" transform="translate(104,69)"/>
<path d="M0 0 C4.95 0.99 4.95 0.99 10 2 C10 7.61 10 13.22 10 19 C13.3 19.99 16.6 20.98 20 22 C20 16.39 20 10.78 20 5 C21.44375 5.144375 22.8875 5.28875 24.375 5.4375 C25.18710937 5.51871094 25.99921875 5.59992188 26.8359375 5.68359375 C29 6 29 6 31 7 C31 24.16 31 41.32 31 59 C24.4 56.03 17.8 53.06 11 50 C8.958125 49.278125 6.91625 48.55625 4.8125 47.8125 C2.56542969 46.65405273 2.56542969 46.65405273 1 45 C0.41113281 42.23852539 0.41113281 42.23852539 0.265625 38.84765625 C0.20866455 37.5939624 0.1517041 36.34026855 0.09301758 35.04858398 C-0.08687727 28.23999328 -0.10498463 21.43536584 -0.0625 14.625 C-0.05746589 13.1953141 -0.05290643 11.76562645 -0.04882812 10.3359375 C-0.03799465 6.89058755 -0.02083984 3.44530573 0 0 Z " fill="#2193EF" transform="translate(34,68)"/>
<path d="M0 0 C2.35125 -0.061875 4.7025 -0.12375 7.125 -0.1875 C7.85348145 -0.21481201 8.58196289 -0.24212402 9.33251953 -0.27026367 C14.00241923 -0.32915988 17.05004088 0.550909 21 3 C24.37993745 6.65398644 25.86444177 9.23774296 26.25 14.25 C25.86353998 20.04690027 23.71888245 24.57275898 20 29 C20.556875 29.04125 21.11375 29.0825 21.6875 29.125 C25.25675176 30.47552769 26.79869784 32.96577269 29 36 C31.08251482 42.06645622 30.87866406 49.53974063 28.75 55.5 C26.18255612 59.16777697 24.30480486 61.56506505 20 63 C18.44578271 63.08106686 16.88832973 63.10756898 15.33203125 63.09765625 C14.52741455 63.09515869 13.72279785 63.09266113 12.89379883 63.09008789 C11.36855591 63.07643188 11.36855591 63.07643188 9.8125 63.0625 C4.9553125 63.0315625 4.9553125 63.0315625 0 63 C0 51.12 0 39.24 0 27 C5.28 26.67 10.56 26.34 16 26 C20.81375192 22.72171131 20.81375192 22.72171131 22 20 C22.43808718 15.71180044 22.44926618 12.05577552 20.75 8.0625 C18.13787697 4.98392643 15.9837141 4.13506955 11.984375 3.5859375 C10.91703125 3.51632813 9.8496875 3.44671875 8.75 3.375 C6.8525 3.25125 4.955 3.1275 3 3 C3 10.26 3 17.52 3 25 C2.01 25 1.02 25 0 25 C0 16.75 0 8.5 0 0 Z M3 28 C3 38.56 3 49.12 3 60 C7.021875 60.1546875 7.021875 60.1546875 11.125 60.3125 C11.95789551 60.35802002 12.79079102 60.40354004 13.64892578 60.45043945 C17.73310654 60.52596415 20.25318928 60.23727939 23.46875 57.59375 C27.12888559 53.84324069 27.90930819 52.4057231 28.25 47.125 C28.03086096 40.16411293 25.64036049 35.98838753 21 31 C17.93466836 29.46733418 14.73245728 29.89723529 11.375 29.9375 C10.31539063 29.94426758 10.31539063 29.94426758 9.234375 29.95117188 C7.48954725 29.96296125 5.744763 29.98089676 4 30 C3.67 29.34 3.34 28.68 3 28 Z " fill="#DBE4DB" transform="translate(283,63)"/>
<path d="M0 0 C1.32 0 2.64 0 4 0 C4 12.87 4 25.74 4 39 C11.92 39 19.84 39 28 39 C28 31.41 28 23.82 28 16 C28.99 16 29.98 16 31 16 C31 31.84 31 47.68 31 64 C30.01 64 29.02 64 28 64 C28 56.74 28 49.48 28 42 C20.08 42 12.16 42 4 42 C4 49.26 4 56.52 4 64 C2.68 64 1.36 64 0 64 C0 42.88 0 21.76 0 0 Z " fill="#AED1E2" transform="translate(397,63)"/>
<path d="M0 0 C17.23503326 0 17.23503326 0 25.03125 6.76171875 C31.71648818 13.74439337 34.20734056 20.97252332 34.4375 30.5625 C34.10280745 41.30505105 30.94662731 49.83791518 23.3828125 57.67578125 C20.78519373 59.96969832 19.54085677 61 16 61 C17 58 17 58 19.8125 56.25 C23.49787999 53.6485553 25.19570912 51.01755435 27 47 C27.30035156 46.36449219 27.60070312 45.72898438 27.91015625 45.07421875 C31.15767206 37.05360994 31.61650236 26.71973263 28.8125 18.5 C25.52179443 12.14553407 23.25836552 8.75501931 17 5 C12.38 4.34 7.76 3.68 3 3 C3 22.14 3 41.28 3 61 C8.445 60.505 8.445 60.505 14 60 C14 60.99 14 61.98 14 63 C9.38 63 4.76 63 0 63 C0 42.21 0 21.42 0 0 Z " fill="#BBD7E0" transform="translate(492,63)"/>
<path d="M0 0 C2.94810991 1.47405495 3.0153141 3.37896057 4.06298828 6.46606445 C4.66338425 8.21842155 4.66338425 8.21842155 5.27590942 10.00617981 C5.70771537 11.29176673 6.13917459 12.57747014 6.5703125 13.86328125 C7.01538339 15.17522552 7.46093632 16.48700635 7.9069519 17.79862976 C8.84134104 20.55191063 9.77044482 23.30690286 10.69580078 26.06323242 C11.88145511 29.5937979 13.07907978 33.12015793 14.28059578 36.64535236 C15.203041 39.35559692 16.11954884 42.06781985 17.03423691 44.78069115 C17.47348848 46.08141157 17.91446935 47.38154934 18.35721207 48.68108559 C18.97601795 50.50063072 19.58610305 52.32313463 20.19580078 54.14575195 C20.71969894 55.70009697 20.71969894 55.70009697 21.25418091 57.2858429 C22 60 22 60 22 64 C21.01 64 20.02 64 19 64 C13 46 7 28 1 10 C-2.19260208 17.65854785 -4.90214081 25.43469151 -7.5 33.3125 C-7.87769531 34.44623047 -8.25539062 35.57996094 -8.64453125 36.74804688 C-10.90048294 43.55078781 -13.0500318 50.37546098 -15.08789062 57.24682617 C-15.88395266 59.64971472 -16.79603098 61.77976685 -18 64 C-18.99 64 -19.98 64 -21 64 C-18.95803076 56.17631244 -16.59566638 48.5042058 -14.0234375 40.83984375 C-13.46736313 39.17230797 -13.46736313 39.17230797 -12.90005493 37.47108459 C-12.12327335 35.14373919 -11.34504686 32.81687558 -10.56542969 30.49047852 C-9.36824468 26.91733794 -8.17596358 23.34258846 -6.984375 19.76757812 C-6.22684719 17.49990488 -5.46904465 15.23232338 -4.7109375 12.96484375 C-4.1750148 11.35874489 -4.1750148 11.35874489 -3.62826538 9.72019958 C-3.2976712 8.73479691 -2.96707703 7.74939423 -2.62646484 6.73413086 C-2.19036392 5.43154579 -2.19036392 5.43154579 -1.74545288 4.10264587 C-1 2 -1 2 0 0 Z " fill="#DAE4DC" transform="translate(250,63)"/>
<path d="M0 0 C7.92 0 15.84 0 24 0 C24 0.66 24 1.32 24 2 C21.69 2 19.38 2 17 2 C17 22.46 17 42.92 17 64 C16.01 64 15.02 64 14 64 C14 43.54 14 23.08 14 2 C9.38 2 4.76 2 0 2 C0 1.34 0 0.68 0 0 Z " fill="#E2E7DB" transform="translate(188,63)"/>
<path d="M0 0 C0.66 0 1.32 0 2 0 C2.33 12.87 2.66 25.74 3 39 C4.77375 35.720625 6.5475 32.44125 8.375 29.0625 C12.37962447 21.71784831 16.40195798 14.38269427 20.5625 7.125 C20.96710449 6.40062744 21.37170898 5.67625488 21.78857422 4.92993164 C22.94140625 2.9453125 22.94140625 2.9453125 25 0 C25.99 0 26.98 0 28 0 C26.55689168 3.83889706 24.79327251 7.35250901 22.8046875 10.9375 C22.17046875 12.08089844 21.53625 13.22429687 20.8828125 14.40234375 C20.5518457 14.99515137 20.22087891 15.58795898 19.87988281 16.19873047 C18.89468339 17.96471719 17.91574292 19.73405886 16.9375 21.50390625 C14.98741809 25.01927744 13.00407408 28.51515245 11 32 C10.6440979 32.62100586 10.2881958 33.24201172 9.92150879 33.88183594 C8.85935197 35.72105619 7.78049333 37.54928913 6.6953125 39.375 C6.05867676 40.45523438 5.42204102 41.53546875 4.76611328 42.6484375 C3.89188721 43.81246094 3.89188721 43.81246094 3 45 C2.01 45 1.02 45 0 45 C0 30.15 0 15.3 0 0 Z " fill="#E9EBDA" transform="translate(136,63)"/>
<path d="M0 0 C0.99 0 1.98 0 3 0 C3 20.46 3 40.92 3 62 C2.34 62 1.68 62 1 62 C-0.33838733 59.54429825 -1.67086232 57.08570084 -3 54.625 C-3.3815625 53.92632812 -3.763125 53.22765625 -4.15625 52.5078125 C-7 47.2265625 -7 47.2265625 -7 45 C-6.01 45 -5.02 45 -4 45 C-3.01 46.98 -2.02 48.96 -1 51 C-0.67 34.17 -0.34 17.34 0 0 Z " fill="#CEDFDD" transform="translate(479,64)"/>
<path d="M0 0 C0.99 0 1.98 0 3 0 C3 15.84 3 31.68 3 48 C2.01 48 1.02 48 0 48 C0 40.41 0 32.82 0 25 C-7.92 25 -15.84 25 -24 25 C-24 24.34 -24 23.68 -24 23 C-16.08 23 -8.16 23 0 23 C0 15.41 0 7.82 0 0 Z " fill="#D6E2DC" transform="translate(425,79)"/>
<path d="M0 0 C0.66 0 1.32 0 2 0 C2 10.89 2 21.78 2 33 C4.866875 32.9175 7.73375 32.835 10.6875 32.75 C12.02880981 32.72631348 12.02880981 32.72631348 13.3972168 32.70214844 C18.45912506 32.48643406 21.39920054 31.8830801 25 28 C26.98946192 24.99749918 27.34407414 22.30839424 27.625 18.75 C27.69976562 17.85796875 27.77453125 16.9659375 27.8515625 16.046875 C27.90054687 15.37140625 27.94953125 14.6959375 28 14 C28.66 14 29.32 14 30 14 C30.37522157 21.8101674 30.32320054 27.15754937 25 33.3125 C21.88181365 35.94346974 19.25870693 36.12266692 15.33203125 36.09765625 C14.52741455 36.09515869 13.72279785 36.09266113 12.89379883 36.09008789 C11.36855591 36.07643188 11.36855591 36.07643188 9.8125 36.0625 C4.9553125 36.0315625 4.9553125 36.0315625 0 36 C0 24.12 0 12.24 0 0 Z " fill="#E9EADA" transform="translate(283,90)"/>
<path d="M0 0 C9 0 9 0 12 2 C8.7 2 5.4 2 2 2 C2 21.47 2 40.94 2 61 C7.94 60.505 7.94 60.505 14 60 C14 60.99 14 61.98 14 63 C9.38 63 4.76 63 0 63 C0 42.21 0 21.42 0 0 Z " fill="#E8EADA" transform="translate(492,63)"/>
<path d="M0 0 C7.26 0 14.52 0 22 0 C22 0.66 22 1.32 22 2 C15.73 2 9.46 2 3 2 C3 14.54 3 27.08 3 40 C2.01 40 1.02 40 0 40 C0 26.8 0 13.6 0 0 Z " fill="#C9DDDE" transform="translate(344,63)"/>
<path d="M0 0 C2.39026818 3.18702424 4.29167931 6.15166926 6.1875 9.625 C6.71730469 10.58664063 7.24710937 11.54828125 7.79296875 12.5390625 C9 15 9 15 9 17 C8.01 17 7.02 17 6 17 C5.01 15.02 4.02 13.04 3 11 C2.67 27.83 2.34 44.66 2 62 C1.34 62 0.68 62 0 62 C0 41.54 0 21.08 0 0 Z " fill="#E9EBDA" transform="translate(451,63)"/>
<path d="M0 0 C1.98 0 3.96 0 6 0 C6 0.99 6 1.98 6 3 C5.01 3 4.02 3 3 3 C3 8.28 3 13.56 3 19 C9.6 19 16.2 19 23 19 C23 19.99 23 20.98 23 22 C15.41 22 7.82 22 0 22 C0 14.74 0 7.48 0 0 Z " fill="#BCD7DF" transform="translate(344,105)"/>
<path d="M0 0 C-0.33 0.66 -0.66 1.32 -1 2 C-3.17382812 2.57836914 -3.17382812 2.57836914 -6.03125 3.03515625 C-7.07023437 3.20466797 -8.10921875 3.37417969 -9.1796875 3.54882812 C-10.27539062 3.71833984 -11.37109375 3.88785156 -12.5 4.0625 C-13.56476563 4.23587891 -14.62953125 4.40925781 -15.7265625 4.58789062 C-34.02765699 7.5219113 -34.02765699 7.5219113 -41 5 C-41 4.67 -41 4.34 -41 4 C-36.60928323 3.1180477 -32.21194139 2.27474856 -27.8125 1.4375 C-26.58595703 1.19064453 -25.35941406 0.94378906 -24.09570312 0.68945312 C-15.79408176 -0.86573188 -8.37656762 -1.09780135 0 0 Z " fill="#2189DD" transform="translate(99,66)"/>
<path d="M0 0 C3.75060607 5.9322335 2.70106948 14.97621469 1.53515625 21.66796875 C-0.92202822 29.88281622 -5.94710232 37.14133715 -13 42 C-13.99 42 -14.98 42 -16 42 C-15 39 -15 39 -12.1875 37.25 C-8.49958486 34.64676578 -6.81087269 32.01611321 -5 28 C-4.69964844 27.38769531 -4.39929688 26.77539062 -4.08984375 26.14453125 C-1.57990129 20.10899519 -1.78500605 14.18772415 -2.02246094 7.76416016 C-2.08219166 5.8436875 -2.04796792 3.92080245 -2 2 C-1.34 1.34 -0.68 0.68 0 0 Z " fill="#CDDFDE" transform="translate(524,82)"/>
<path d="M0 0 C4.95 0 9.9 0 15 0 C15 0.66 15 1.32 15 2 C12.69 2.33 10.38 2.66 8 3 C8.00523682 4.04752441 8.01047363 5.09504883 8.01586914 6.17431641 C8.03422104 10.12922278 8.04554017 14.08412555 8.05493164 18.0390625 C8.05990387 19.73796221 8.06668402 21.43685777 8.07543945 23.13574219 C8.12734477 33.48016674 7.93761823 43.68937063 7 54 C6.67 54 6.34 54 6 54 C6 37.17 6 20.34 6 3 C3.03 2.505 3.03 2.505 0 2 C0 1.34 0 0.68 0 0 Z " fill="#0E3058" transform="translate(60,72)"/>
<path d="M0 0 C0.495 0.99 0.495 0.99 1 2 C-3.22536245 2.71232338 -7.45561562 3.39010306 -11.6875 4.0625 C-12.86634766 4.26166016 -14.04519531 4.46082031 -15.25976562 4.66601562 C-23.39364318 5.9362376 -30.82970096 6.00136658 -39 5 C-38.67 4.34 -38.34 3.68 -38 3 C-35.90551758 2.49755859 -35.90551758 2.49755859 -33.14453125 2.1484375 C-31.63052734 1.95471558 -31.63052734 1.95471558 -30.0859375 1.75708008 C-29.00570312 1.63099365 -27.92546875 1.50490723 -26.8125 1.375 C-25.18248047 1.17716919 -25.18248047 1.17716919 -23.51953125 0.9753418 C-15.63318564 0.06759056 -7.94028903 -0.37744332 0 0 Z " fill="#208BE1" transform="translate(78,62)"/>
<path d="M0 0 C0.99 0 1.98 0 3 0 C0.79352355 5.88985207 -2.34505966 11.26677183 -5.39477539 16.74804688 C-6.43643734 18.62308716 -7.46939095 20.50274921 -8.50195312 22.3828125 C-9.16614159 23.58102038 -9.83083792 24.7789469 -10.49609375 25.9765625 C-11.39606079 27.60198975 -11.39606079 27.60198975 -12.31420898 29.26025391 C-13.73545013 31.57005377 -14.89268919 33.31605411 -17 35 C-17.66 35 -18.32 35 -19 35 C-17.4627249 30.86361559 -15.4790006 27.05143715 -13.33984375 23.203125 C-12.9899086 22.56888611 -12.63997345 21.93464722 -12.2794342 21.28118896 C-11.54371701 19.94922362 -10.80658572 18.61803848 -10.06811523 17.28759766 C-8.93442668 15.24446126 -7.80575583 13.1986134 -6.67773438 11.15234375 C-5.96123063 9.8566087 -5.24444377 8.56103015 -4.52734375 7.265625 C-4.18879868 6.65213196 -3.8502536 6.03863892 -3.50144958 5.40655518 C-1.1157513 1.1157513 -1.1157513 1.1157513 0 0 Z " fill="#D9E4DB" transform="translate(161,63)"/>
<path d="M0 0 C2.60343427 2.37170481 4.27961285 4.90382385 6.06640625 7.9296875 C6.63423828 8.89003906 7.20207031 9.85039063 7.78710938 10.83984375 C8.37298828 11.84144531 8.95886719 12.84304687 9.5625 13.875 C10.15224609 14.86886719 10.74199219 15.86273438 11.34960938 16.88671875 C13.88150221 21.19007245 16.24116825 25.3150401 18 30 C16.13427734 29.70288086 16.13427734 29.70288086 14 29 C12.36775447 26.53382539 10.98218641 24.17303952 9.625 21.5625 C8.84000807 20.10077405 8.05354834 18.6398354 7.265625 17.1796875 C6.69231445 16.10799316 6.69231445 16.10799316 6.10742188 15.01464844 C4.20163091 11.5475878 2.05509855 8.23283666 -0.1015625 4.91796875 C-1 3 -1 3 0 0 Z " fill="#D5E2DC" transform="translate(147,97)"/>
<path d="M0 0 C0.99 0.33 1.98 0.66 3 1 C3.88715839 3.48641716 4.57751873 5.82114844 5.1875 8.375 C5.36474609 9.06078125 5.54199219 9.7465625 5.72460938 10.453125 C6.46087576 13.37544872 7 15.97578444 7 19 C6.01 19 5.02 19 4 19 C3.32713788 16.58490559 2.66153988 14.16819644 2 11.75 C1.71382812 10.72712891 1.71382812 10.72712891 1.421875 9.68359375 C0.50042956 6.29399088 0 3.54221024 0 0 Z " fill="#CFDFDD" transform="translate(247,108)"/>
<path d="M0 0 C1 3 1 3 -0.00390625 5.0859375 C-3.24632251 9.84798243 -6.23241535 13.71566391 -11 17 C-11.99 17 -12.98 17 -14 17 C-13 14 -13 14 -10.1875 12.25 C-6.25565922 9.47458298 -5.22261009 7.21529499 -3 3 C-1.25 1.0625 -1.25 1.0625 0 0 Z " fill="#DAE4DC" transform="translate(522,107)"/>
<path d="M0 0 C0.99 0 1.98 0 3 0 C6.875 6.75 6.875 6.75 8 9 C6.68 9 5.36 9 4 9 C0 2.25 0 2.25 0 0 Z " fill="#D9E3DC" transform="translate(472,109)"/>
<path d="M0 0 C0.33 0.66 0.66 1.32 1 2 C1.66 2 2.32 2 3 2 C2.67 3.98 2.34 5.96 2 8 C1.01 7.67 0.02 7.34 -1 7 C-0.67 4.69 -0.34 2.38 0 0 Z " fill="#BDD8E0" transform="translate(522,101)"/>
<path d="M0 0 C0.99 0 1.98 0 3 0 C3.66 1.98 4.32 3.96 5 6 C4.01 6 3.02 6 2 6 C1.34 4.02 0.68 2.04 0 0 Z " fill="#D2E1DD" transform="translate(455,74)"/>
</svg>
